<svg xmlns="http://www.w3.org/2000/svg" width="43" height="43" viewBox="0 0 43 43">
  <g id="グループ_10" data-name="グループ 10" transform="translate(-278 -683)">
    <g id="グループ_4" data-name="グループ 4" transform="translate(58 16)">
      <circle id="楕円形_4" data-name="楕円形 4" cx="21.5" cy="21.5" r="21.5" transform="translate(220 667)" fill="#272525"/>
    </g>
    <g id="シンプルなメールのアイコン素材" transform="translate(288.376 623.52)">
      <path id="パス_10" data-name="パス 10" d="M21.631,73.564H.194A.194.194,0,0,0,0,73.758v.5a.226.226,0,0,0,.085.177Q5.019,78.374,9.943,82.3a1.406,1.406,0,0,0,.879.308c.031,0,.06-.006.091-.008s.06.008.09.008a1.406,1.406,0,0,0,.879-.308q4.92-3.936,9.858-7.863a.227.227,0,0,0,.085-.177v-.5A.2.2,0,0,0,21.631,73.564Z" fill="#fff"/>
      <path id="パス_11" data-name="パス 11" d="M21.615,173.187l-8.21,6.584a4.139,4.139,0,0,1-5.157.009L5,177.188.209,173.367a.129.129,0,0,0-.209.1v10.423a.575.575,0,0,0,.575.575H21.25a.575.575,0,0,0,.575-.575v-10.6A.129.129,0,0,0,21.615,173.187Z" transform="translate(0 -95.349)" fill="#fff"/>
    </g>
  </g>
</svg>
