<svg xmlns="http://www.w3.org/2000/svg" width="43" height="43" viewBox="0 0 43 43">
  <path id="icons8-github_1_" data-name="icons8-github (1)" d="M16.761,45a1.919,1.919,0,0,0,1.13-1.761V38.06a5.066,5.066,0,0,1,.038-.585l-.038.01H14.526a3.347,3.347,0,0,1-3.178-1.726c-.654-1.247-.935-3.357-2.617-4.508-.28-.192-.093-.48.467-.48a5.126,5.126,0,0,1,2.524,1.918c.841,1.055,1.683,1.918,3.178,1.918,2.325,0,3.571-.12,4.321-.532.873-1.332,2.082-2.345,3.345-2.345v-.024c-5.3-.175-8.683-1.981-10.259-4.771a55.023,55.023,0,0,0-8.111.678q-.081-.47-.141-.947a55.854,55.854,0,0,1,7.8-.685,7.968,7.968,0,0,1-.272-.814,58.885,58.885,0,0,0-7.653.093c-.019-.318-.044-.636-.048-.958a59.7,59.7,0,0,1,7.5-.106,9.668,9.668,0,0,1-.122-1.48,8.4,8.4,0,0,1,1.589-4.8c-.467-1.63-1.122-5.083.187-6.33a7.683,7.683,0,0,1,5.141,2.014A13.548,13.548,0,0,1,23.5,12.55,12.781,12.781,0,0,1,28.735,13.6a7.683,7.683,0,0,1,5.141-2.014c1.4,1.343.654,4.8.187,6.33a7.488,7.488,0,0,1,1.5,4.8,9.809,9.809,0,0,1-.1,1.351,60.191,60.191,0,0,1,7.669.1c0,.323-.031.639-.048.958a59.036,59.036,0,0,0-7.814-.085,8.078,8.078,0,0,1-.3.94,56.666,56.666,0,0,1,7.991.661q-.06.478-.141.947a55.56,55.56,0,0,0-8.3-.654c-1.556,2.76-4.88,4.56-10.074,4.77v.03c2.43,0,4.674,3.74,4.674,6.33v5.179A1.919,1.919,0,0,0,30.239,45,22.047,22.047,0,0,0,45,24.058C45,11.9,35.356,2,23.5,2S2,11.9,2,24.058A22.047,22.047,0,0,0,16.761,45Z" transform="translate(-2 -2)" fill="#272525"/>
</svg>
