<svg xmlns="http://www.w3.org/2000/svg" width="43" height="43" viewBox="0 0 43 43">
  <g id="グループ_8" data-name="グループ 8" transform="translate(-161 -667)">
    <circle id="楕円形_3" data-name="楕円形 3" cx="21.5" cy="21.5" r="21.5" transform="translate(161 667)" fill="#272525"/>
    <g id="インスタグラムのシンプルなロゴのアイコン_1" data-name="インスタグラムのシンプルなロゴのアイコン 1" transform="translate(166.552 676.717)">
      <path id="パス_4" data-name="パス 4" d="M20.595,0H10.861a6.58,6.58,0,0,0-6.58,6.58V16.7a6.58,6.58,0,0,0,6.58,6.58h9.734a6.58,6.58,0,0,0,6.58-6.58V6.58A6.58,6.58,0,0,0,20.595,0ZM6.617,6.58a4.249,4.249,0,0,1,4.244-4.244h9.734A4.249,4.249,0,0,1,24.839,6.58V16.7a4.249,4.249,0,0,1-4.244,4.244H10.861A4.249,4.249,0,0,1,6.617,16.7Z" fill="#fff"/>
      <path id="パス_5" data-name="パス 5" d="M130.145,136.137a6,6,0,1,0-6-6A6,6,0,0,0,130.145,136.137Zm0-10.123a4.127,4.127,0,1,1-4.127,4.127A4.132,4.132,0,0,1,130.145,126.014Z" transform="translate(-114.417 -118.5)" fill="#fff"/>
      <ellipse id="楕円形_1" data-name="楕円形 1" cx="1.343" cy="1.343" rx="1.343" ry="1.343" transform="translate(20.556 4.127)" fill="#fff"/>
    </g>
  </g>
</svg>
