<svg xmlns="http://www.w3.org/2000/svg" width="43" height="43" viewBox="0 0 43 43">
  <g id="グループ_7" data-name="グループ 7" transform="translate(-101 -667)">
    <circle id="楕円形_2" data-name="楕円形 2" cx="21.5" cy="21.5" r="21.5" transform="translate(101 667)" fill="#272525"/>
    <g id="twitterのアイコン素材_その2" data-name="twitterのアイコン素材 その2" transform="translate(110.353 678.825)">
      <g id="twitterのフリーアイコン素材">
        <path id="パス_7" data-name="パス 7" d="M170.167,166.195c.009-.013.02-.026.029-.039a9.989,9.989,0,0,1-2.263.691c-.188.028-.378.053-.57.067a5.015,5.015,0,0,0,1.874-2.064,5.4,5.4,0,0,0,.3-.651l-.029.016c0-.013.012-.025.016-.038a10.017,10.017,0,0,1-3.175,1.214,5,5,0,0,0-8.538,4.469c0,.031.007.061.011.092a14.174,14.174,0,0,1-9.361-4.183c-.321-.328-.631-.668-.92-1.029l0,.008-.018-.02a4.99,4.99,0,0,0,.895,6.145,5.362,5.362,0,0,0,.616.528,4.983,4.983,0,0,1-2.228-.622c0,.021,0,.042,0,.063a4.99,4.99,0,0,0,2.918,4.53,5.084,5.084,0,0,0,1.05.382,5.008,5.008,0,0,1-1.273.167,4.944,4.944,0,0,1-.831-.079c-.028-.008-.058-.01-.085-.018l0,.011-.029,0a5.01,5.01,0,0,0,3.871,3.394,5.21,5.21,0,0,0,.779.095,10.033,10.033,0,0,1-6.189,2.125c-.324,0-.642-.026-.959-.056-.073-.013-.149-.018-.22-.035l.042.025-.056,0a14.154,14.154,0,0,0,7.666,2.247,13.685,13.685,0,0,0,11.277-5.527l.025-.031c.229-.307.439-.624.642-.946.042-.066.088-.128.128-.195.187-.307.355-.623.518-.94.041-.079.087-.155.126-.236q.284-.58.514-1.177l.006-.014a14.416,14.416,0,0,0,.994-5.163q0-.326-.014-.647a10.157,10.157,0,0,0,2.058-1.993c.153-.187.305-.376.448-.572Z" transform="translate(-145.82 -163.811)" fill="#fff"/>
      </g>
    </g>
  </g>
</svg>
